{"title":"Bill.2015.WEBRip.480p.x264.AAC-VYTO [P2PDL]","uid":13744396,"size":373957279,"categoryP":"video","categoryS":"movies","magnet":"?xt=urn:btih:db286b6f60b1d476cc8f38df9ec91ee702783d07&amp;dn=Bill.2015.WEBRip.480p.x264.AAC-VYTO+%5BP2PDL%5D&amp;tr=udp%3A%2F%2Ftracker.leechers-paradise.org%3A6969&amp;tr=udp%3A%2F%2Fzer0day.ch%3A1337&amp;tr=udp%3A%2F%2Fopen.demonii.com%3A1337&amp;tr=udp%3A%2F%2Ftracker.coppersurfer.tk%3A6969&amp;tr=udp%3A%2F%2Fexodus.desync.com%3A6969","seeders":1,"leechers":0,"uploader":"VYTOP2PDL","files":6,"time":1457109606,"description":"____    ____ ____    ____ .___________.  ______   \r\n     /   /      /   / |           | /  __    \r\n    /   /      /   /  `---|  |----`|  |  |  | \r\n        /     _    _/       |  |     |  |  |  | \r\n       /        |  |         |  |     |  `--'  | \r\n    __/         |__|         |__|      ______/  \r\n                                                  \r\nPresenting Small Encodes with quality for years!\r\n                                                                                                   \r\n                                                                                                   \r\n\r\n\r\nBill.2015.WEBRip.480p.x264.AAC-VYTO\r\n\r\n\r\nGenre: Family  \nhttp://www.imdb.com/title/tt2978576/\r\n\r\n\r\nFormat                                   : MPEG-4\r\nFile size                                : 351 MiB\r\nDuration                                 : 1h 33mn\r\nOverall bit rate                         : 523 Kbps\r\n\r\nVideo\r\nFormat                                   : AVC\r\nDuration                                 : 1h 33mn\r\nMaximum bit rate                         : 2 269 Kbps\r\nWidth                                    : 720 pixels\r\nHeight                                   : 304 pixels\r\nDisplay aspect ratio                     : 2.35:1\r\nFrame rate mode                          : Constant\r\nFrame rate                               : 24.000 fps\r\nBit depth                                : 8 bits\r\nStream size                              : 327 MiB (93%)\r\nWriting library                          : x264\r\n\r\nAudio\r\nFormat                                   : AAC\r\nBit rate mode                            : Variable\r\nBit rate                                 : 32.0 Kbps\r\nChannel(s)                               : 2 channels \r\nChannel positions                        : Front: L R \r\nSampling rate                            : 48.0 KHz \r\nStream size                              : 21.5 MiB (6%)\r\nLanguage                                 : English\r\n\r\nSubtitle                                 : N/a\r\n\r\nScreen Shot: (Click to view full sized image)\r\n \nhttp://ititli.com/XwB \nhttp://ititli.com/XwN \nhttp://ititli.com/XwP \nhttp://ititli.com/Xwf \nhttp://ititli.com/Xwu \nhttp://ititli.com/Xwv \nhttp://ititli.com/XwR \nhttp://ititli.com/Xwy \nhttp://ititli.com/Xw3\r\n\r\n----------------------------------------------------------------------------------------------------\r\n\r\n\r\nEncoder Notes: Looking For Early Access To Anything You Can Provide WEBDL, DVDScr, DVDR, BluRay,\r\nDirect Audio, Music Releases and Seedboxes. If You Got anything to offer please contact us.\r\n\r\nSupport us by donating BC - 1FgwdzPsd1y25Gea8wP1qni35uGCtmkRCD\r\n\r\n\r\nSend some love!\r\nFind us and join us!","torrent":{"xt":"urn:btih:db286b6f60b1d476cc8f38df9ec91ee702783d07","amp;dn":"Bill.2015.WEBRip.480p.x264.AAC-VYTO+%5BP2PDL%5D","amp;tr":["udp%3A%2F%2Ftracker.leechers-paradise.org%3A6969","udp%3A%2F%2Fzer0day.ch%3A1337","udp%3A%2F%2Fopen.demonii.com%3A1337","udp%3A%2F%2Ftracker.coppersurfer.tk%3A6969","udp%3A%2F%2Fexodus.desync.com%3A6969"],"infoHash":"db286b6f60b1d476cc8f38df9ec91ee702783d07","infoHashBuffer":{"type":"Buffer","data":[219,40,107,111,96,177,212,118,204,143,56,223,158,201,30,231,2,120,61,7]},"announce":[],"urlList":[]}}